<svg width="32" height="32" viewBox="0 0 32 32" fill="none" xmlns="http://www.w3.org/2000/svg">
  <defs>
    <linearGradient id="gradient" x1="0%" y1="0%" x2="100%" y2="100%">
      <stop offset="0%" style="stop-color:#8B5CF6;stop-opacity:1" />
      <stop offset="100%" style="stop-color:#EC4899;stop-opacity:1" />
    </linearGradient>
  </defs>
  
  <!-- Background circle -->
  <circle cx="16" cy="16" r="16" fill="url(#gradient)"/>
  
  <!-- Headphones -->
  <path d="M8 14C8 10.6863 10.6863 8 14 8H18C21.3137 8 24 10.6863 24 14V18C24 19.1046 23.1046 20 22 20H21C19.8954 20 19 19.1046 19 18V16C19 15.4477 19.4477 15 20 15H22V14C22 11.7909 20.2091 10 18 10H14C11.7909 10 10 11.7909 10 14V15H12C12.5523 15 13 15.4477 13 16V18C13 19.1046 12.1046 20 11 20H10C8.89543 20 8 19.1046 8 18V14Z" fill="white"/>
  
  <!-- Sound waves -->
  <path d="M6 12C6 11.4477 5.55228 11 5 11C4.44772 11 4 11.4477 4 12V20C4 20.5523 4.44772 21 5 21C5.55228 21 6 20.5523 6 20V12Z" fill="white" opacity="0.6"/>
  <path d="M28 12C28 11.4477 27.5523 11 27 11C26.4477 11 26 11.4477 26 12V20C26 20.5523 26.4477 21 27 21C27.5523 21 28 20.5523 28 20V12Z" fill="white" opacity="0.6"/>
  
  <!-- Moon symbol for sleep -->
  <path d="M16 6C16.5523 6 17 5.55228 17 5C17 4.44772 16.5523 4 16 4C15.4477 4 15 4.44772 15 5C15 5.55228 15.4477 6 16 6Z" fill="white" opacity="0.8"/>
  <path d="M14.5 5.5C14.5 5.77614 14.2761 6 14 6C13.7239 6 13.5 5.77614 13.5 5.5C13.5 5.22386 13.7239 5 14 5C14.2761 5 14.5 5.22386 14.5 5.5Z" fill="white" opacity="0.6"/>
  <path d="M18.5 5.5C18.5 5.77614 18.2761 6 18 6C17.7239 6 17.5 5.77614 17.5 5.5C17.5 5.22386 17.7239 5 18 5C18.2761 5 18.5 5.22386 18.5 5.5Z" fill="white" opacity="0.6"/>
</svg>